<?xml version="1.0" encoding="iso-8859-1"?>
<!-- Generator: Adobe Illustrator 19.0.0, SVG Export Plug-In . SVG Version: 6.00 Build 0)  -->
<svg version="1.1" id="Layer_1" xmlns="http://www.w3.org/2000/svg" xmlns:xlink="http://www.w3.org/1999/xlink" x="0px" y="0px"
	 viewBox="0 0 511.999 511.999" style="enable-background:new 0 0 511.999 511.999;" xml:space="preserve">
<path style="fill:#BFE4F8;" d="M255.999,451.414c-73.102,0-140.198-32.836-194.035-94.955
	c-39.99-46.143-58.555-91.935-59.326-93.862L0,255.999l2.639-6.598c0.771-1.927,19.335-47.719,59.326-93.862
	c53.837-62.119,120.933-94.955,194.035-94.955S396.197,93.42,450.035,155.54c39.99,46.143,58.555,91.935,59.326,93.862l2.639,6.598
	l-2.639,6.598c-0.771,1.927-19.335,47.719-59.326,93.862C396.198,418.58,329.101,451.414,255.999,451.414z"/>
<path style="fill:#93C7EF;" d="M509.361,249.402c-0.771-1.927-19.335-47.719-59.326-93.862
	C396.198,93.42,329.101,60.585,255.999,60.585v390.83c73.102,0,140.198-32.836,194.035-94.955
	c39.99-46.143,58.555-91.935,59.326-93.862l2.639-6.598L509.361,249.402z"/>
<circle style="fill:#3C5D76;" cx="256.005" cy="256.005" r="106.59"/>
<path style="fill:#1E2E3B;" d="M255.999,149.409c58.868,0,106.59,47.723,106.59,106.59s-47.722,106.59-106.59,106.59"/>
<path style="fill:#FFFFFF;" d="M238.234,255.999h-35.53c0-29.387,23.908-53.295,53.295-53.295v35.53
	C246.204,238.234,238.234,246.204,238.234,255.999z"/>
<path style="fill:#93C7EF;" d="M269.202,343.838c-4.31,0.645-8.717,0.987-13.203,0.987c-48.978,0-88.825-39.847-88.825-88.825
	s39.847-88.825,88.825-88.825c4.486,0,8.893,0.341,13.203,0.987v-35.815c-4.339-0.461-8.743-0.701-13.203-0.701
	c-68.569,0-124.355,55.786-124.355,124.355s55.786,124.355,124.355,124.355c4.46,0,8.864-0.24,13.203-0.701V343.838z"/>
<path style="fill:#3C5D76;" d="M255.999,131.644v35.53c48.978,0,88.825,39.847,88.825,88.825s-39.847,88.825-88.825,88.825v35.53
	c68.569,0,124.355-55.786,124.355-124.355S324.569,131.644,255.999,131.644z"/>
<g>
</g>
<g>
</g>
<g>
</g>
<g>
</g>
<g>
</g>
<g>
</g>
<g>
</g>
<g>
</g>
<g>
</g>
<g>
</g>
<g>
</g>
<g>
</g>
<g>
</g>
<g>
</g>
<g>
</g>
</svg>
