<?xml version="1.0" encoding="iso-8859-1"?>
<!-- Generator: Adobe Illustrator 19.0.0, SVG Export Plug-In . SVG Version: 6.00 Build 0)  -->
<svg version="1.1" id="Layer_1" xmlns="http://www.w3.org/2000/svg" xmlns:xlink="http://www.w3.org/1999/xlink" x="0px" y="0px"
	 viewBox="0 0 512 512" style="enable-background:new 0 0 512 512;" xml:space="preserve">
<path style="fill:#FF9269;" d="M101.279,104.971c0-14.471-11.737-26.208-26.208-26.208S48.864,90.5,48.864,104.971
	c0,0,0.034,32.407,0.034,32.408c0,0.068,0.113,134.015,0.113,134.015h52.269V104.971z"/>
<polygon style="fill:#FFB082;" points="233.496,390.504 233.496,512 199.737,511.955 165.979,329.379 "/>
<path style="fill:#FFCD9C;" d="M199.737,363.137v148.818l-72.018-0.101v-31.8c0-5.986-2.397-15.146-5.334-20.356L18.332,291.739
	c-2.926-5.21-5.334-14.37-5.334-20.345l-0.146-166.428c0-14.471,11.737-26.208,26.208-26.208s26.208,11.737,26.208,26.208v149.166
	L199.737,363.137z"/>
<path style="fill:#FF9269;" d="M210.428,334.814l-30.36-30l19.67,164.797c10.308,4.816,21.763,7.494,33.758,7.494v-86.601
	C233.496,372.556,223.121,347.496,210.428,334.814z"/>
<path style="fill:#FFB082;" d="M199.737,356.746v112.865c-27.052-12.581-46.159-39.745-46.159-71.219v-45.101l-80.637-80.637
	c-10.229-10.229-10.229-26.827,0-37.055c10.24-10.24,26.827-10.24,37.067,0l70.06,69.216
	C191.163,318.239,199.737,340.429,199.737,356.746z"/>
<path style="fill:#FF9269;" d="M410.724,104.971c0-14.471,11.737-26.208,26.208-26.208c14.471,0,26.208,11.737,26.208,26.208
	c0,0-0.034,32.407-0.034,32.408c0,0.068-0.113,134.015-0.113,134.015h-52.269V104.971z"/>
<path style="fill:#FFCD9C;" d="M446.733,254.131V104.97c0-14.471,11.737-26.208,26.208-26.208c14.471,0,26.208,11.737,26.208,26.208
	l-0.146,166.423c0,5.975-2.408,15.135-5.334,20.345L389.617,459.695c-2.937,5.21-5.334,14.37-5.334,20.356v31.8L278.507,512V390.5
	L446.733,254.131z"/>
<path style="fill:#FFB082;" d="M301.574,334.81L402,235.597c10.234-10.234,26.827-10.234,37.061,0s10.234,26.827,0,37.061
	l-80.633,80.633v45.107c0,43.469-36.451,78.708-79.92,78.708v-86.607C278.507,372.557,288.887,347.497,301.574,334.81z"/>
<rect x="309.451" y="22.505" style="fill:#2F5E88;" width="56.264" height="157.538"/>
<rect x="146.286" y="22.505" style="fill:#367596;" width="185.67" height="157.538"/>
<polygon style="fill:#88ACB5;" points="343.21,157.538 320.704,180.044 343.21,202.549 376.968,202.549 376.968,157.538 "/>
<rect x="135.033" y="157.538" style="fill:#A7CBCF;" width="208.176" height="45.011"/>
<polygon style="fill:#88ACB5;" points="343.21,0 320.704,22.505 343.21,45.011 376.968,45.011 376.968,0 "/>
<rect x="135.033" style="fill:#A7CBCF;" width="208.176" height="45.011"/>
<polygon style="fill:#88ACB5;" points="343.21,78.769 320.704,101.275 343.21,123.78 376.968,123.78 376.968,78.769 "/>
<rect x="135.033" y="78.769" style="fill:#A7CBCF;" width="208.176" height="45.011"/>
<g>
</g>
<g>
</g>
<g>
</g>
<g>
</g>
<g>
</g>
<g>
</g>
<g>
</g>
<g>
</g>
<g>
</g>
<g>
</g>
<g>
</g>
<g>
</g>
<g>
</g>
<g>
</g>
<g>
</g>
</svg>
