<?xml version="1.0" encoding="iso-8859-1"?>
<!-- Generator: Adobe Illustrator 19.0.0, SVG Export Plug-In . SVG Version: 6.00 Build 0)  -->
<svg version="1.1" id="Layer_1" xmlns="http://www.w3.org/2000/svg" xmlns:xlink="http://www.w3.org/1999/xlink" x="0px" y="0px"
	 viewBox="0 0 511.982 511.982" style="enable-background:new 0 0 511.982 511.982;" xml:space="preserve">
<path style="fill:#48CFAD;" d="M448.748,386.347l-1.812-0.531c-26.469-7.094-35.438-13.938-47.218-18.406
	c-41.796-15.938-52.671-27.405-55.452-32.827c-0.109-0.203-0.172-0.406-0.266-0.609l-0.344-48.545l-99.129-1.125l-99.138,1.125
	l-0.344,48.545c-0.078,0.203-0.156,0.406-0.266,0.609c-2.781,5.422-13.656,16.89-55.451,32.827
	c-11.781,4.469-20.734,11.312-47.202,18.406l-1.812,0.531c-24.093,7.968-40.311,30.311-40.311,55.529v70.106h244.523h244.516
	v-70.106C489.044,416.658,472.841,394.315,448.748,386.347z"/>
<path style="fill:#DBAFA5;" d="M370.657,354.738L370.657,354.738c-3.25-1.672-6.109-3.25-8.625-4.766h-0.031
	c-0.844-0.5-1.625-1-2.406-1.469c0-0.016,0-0.016,0-0.016c-0.375-0.234-0.719-0.452-1.062-0.687
	c-0.031-0.016-0.062-0.031-0.094-0.047c-0.719-0.453-1.375-0.906-2.031-1.344c-0.031-0.031-0.062-0.062-0.109-0.094
	c-0.266-0.188-0.547-0.375-0.797-0.547c-0.062-0.047-0.109-0.078-0.156-0.109c-0.594-0.422-1.141-0.828-1.656-1.219
	c-0.062-0.047-0.125-0.094-0.188-0.141c-0.219-0.156-0.406-0.312-0.594-0.453c-0.062-0.047-0.125-0.094-0.188-0.156
	c-0.25-0.188-0.484-0.375-0.719-0.562l0,0c-0.234,0.219-0.359,0.109-0.375-0.297c-4.25-3.5-6.344-6.281-7.359-8.25
	c-0.109-0.203-0.172-0.406-0.266-0.609l-0.344-48.545l-99.129-1.125l-99.138,1.125l-0.344,48.545
	c-0.078,0.203-0.156,0.406-0.266,0.609c-1.828,3.578-7.203,9.781-22.655,18.187c4.438,5.297,13.578,15.047,27.765,24.703
	c18.671,12.702,50.249,27.842,94.638,27.842c44.225,0,77.334-15.03,97.317-27.639C355.688,368.941,365.329,360.16,370.657,354.738z"
	/>
<path style="fill:#EAC6BB;" d="M382.079,191.478c0,89.372-85.201,171.619-137.551,171.619c-52.358,0-137.558-82.247-137.558-171.619
	S168.561,43.139,244.528,43.139C320.503,43.139,382.079,102.106,382.079,191.478z"/>
<path style="fill:#965353;" d="M315.534,50.873c0,0-2.688-23.781,25.795-40.889c12.062-7.25-180.752-41.608-229.141,80.216
	c-18.171,45.78-4.734,113.137-4.734,113.137l41.905-75.138c0,0,45.67,10.671,95.169,10.671c49.506,0,96.817-10.671,96.817-10.671
	l40.734,63.498c0,0,15.64-60.951-1.891-101.356C362.657,49.936,315.534,50.873,315.534,50.873z"/>
<path style="fill:#37BC9B;" d="M370.657,354.738c-8.672-4.453-14.609-8.327-18.656-11.608c-4.922,4.594-12.374,10.796-22.28,16.968
	c-25.437,15.844-54.107,23.891-85.193,23.891c-30.905,0-58.436-7.953-81.841-23.609c-11.265-7.547-18.812-15.171-22.812-19.702
	c-3.469,3.281-8.984,7.328-17.75,12.093c4.438,5.297,13.578,15.047,27.765,24.703c18.671,12.702,50.249,27.842,94.638,27.842
	c44.225,0,77.334-15.03,97.317-27.639C355.688,368.941,365.329,360.16,370.657,354.738z"/>
<path style="fill:#656D78;" d="M108.641,213.321h271.766c1.062-7.047,1.641-14.156,1.656-21.327H106.985
	C107.001,199.165,107.579,206.274,108.641,213.321z"/>
<g>
	<path style="fill:#5D9CEC;" d="M240.028,202.65c0,20.625-2.625,37.342-53.342,37.342s-53.327-16.718-53.327-37.342
		c0-20.609,7.844-37.327,53.327-37.327C232.184,165.323,240.028,182.041,240.028,202.65z"/>
	<path style="fill:#5D9CEC;" d="M357.813,202.65c0,20.625-2.594,37.342-53.326,37.342c-50.741,0-53.335-16.718-53.335-37.342
		c0-20.609,7.829-37.327,53.335-37.327C349.97,165.323,357.813,182.041,357.813,202.65z"/>
</g>
<path style="fill:#656D78;" d="M492.669,368.894c-0.625-1.859-1.734-3.5-3.219-4.766l-23.891-20.265
	c-1.922-1.641-4.374-2.547-6.89-2.547h-21.343c-2.828,0-5.531,1.125-7.531,3.125l-7.547,7.546h-97.809l-7.578-7.546
	c-2-2-4.703-3.125-7.531-3.125h-21.328c-3.609,0-6.969,1.828-8.937,4.844l-13.227,20.28c-0.483,0.766-0.874,1.594-1.171,2.453
	c-21.875,65.732-25.125,107.902-9.954,128.934c6.657,9.266,16.578,14.155,28.663,14.155c10.375,0,25.078-4.733,36.219-27.28
	c2.719-5.531,4.688-11.047,6-15.391h106.152c1.312,4.344,3.266,9.859,6,15.391c11.14,22.547,25.842,27.28,36.201,27.28
	c12.094,0,22-4.89,28.672-14.155C517.793,476.797,514.543,434.627,492.669,368.894z"/>
<path style="fill:#CCD1D9;" d="M362.673,447.986c0,11.78-9.562,21.326-21.344,21.326c-11.78,0-21.326-9.546-21.326-21.326
	c0-11.781,9.546-21.344,21.326-21.344C353.11,426.642,362.673,436.205,362.673,447.986z"/>
<path style="fill:#AAB2BC;" d="M341.329,479.984c-17.639,0-31.998-14.358-31.998-31.998c0-17.656,14.359-32,31.998-32
	c17.656,0,32,14.344,32,32C373.329,465.626,358.985,479.984,341.329,479.984z M341.329,437.314c-5.874,0-10.655,4.781-10.655,10.672
	c0,5.874,4.781,10.655,10.655,10.655c5.891,0,10.672-4.781,10.672-10.655C352.001,442.096,347.22,437.314,341.329,437.314z"/>
<path style="fill:#CCD1D9;" d="M437.327,447.986c0,11.78-9.547,21.326-21.328,21.326s-21.327-9.546-21.327-21.326
	c0-11.781,9.546-21.344,21.327-21.344S437.327,436.205,437.327,447.986z"/>
<path style="fill:#AAB2BC;" d="M415.999,479.984c-17.64,0-31.998-14.358-31.998-31.998c0-17.656,14.358-32,31.998-32
	c17.641,0,31.999,14.344,31.999,32C447.998,465.626,433.639,479.984,415.999,479.984z M415.999,437.314
	c-5.875,0-10.672,4.781-10.672,10.672c0,5.874,4.797,10.655,10.672,10.655s10.672-4.781,10.672-10.655
	C426.671,442.096,421.874,437.314,415.999,437.314z"/>
<polygon style="fill:#434A54;" points="422.249,351.988 324.44,351.988 324.3,383.988 422.233,383.988 "/>
<g>
</g>
<g>
</g>
<g>
</g>
<g>
</g>
<g>
</g>
<g>
</g>
<g>
</g>
<g>
</g>
<g>
</g>
<g>
</g>
<g>
</g>
<g>
</g>
<g>
</g>
<g>
</g>
<g>
</g>
</svg>
